<?xml version="1.0" standalone="no"?>
<!DOCTYPE svg PUBLIC "-//W3C//DTD SVG 20010904//EN"
 "http://www.w3.org/TR/2001/REC-SVG-20010904/DTD/svg10.dtd">
<svg version="1.0" xmlns="http://www.w3.org/2000/svg"
 width="260.000000pt" height="260.000000pt" viewBox="0 0 260.000000 260.000000"
 preserveAspectRatio="xMidYMid meet">
<metadata>
Created by potrace 1.11, written by Peter Selinger 2001-2013
</metadata>
<g transform="translate(0.000000,260.000000) scale(0.100000,-0.100000)"
fill="#000000" stroke="none">
<path d="M964 2400 c-17 -7 -21 -18 -23 -60 -1 -32 -11 -72 -27 -104 -25 -52
-42 -74 -145 -185 -33 -36 -58 -69 -56 -74 2 -6 12 -13 23 -17 16 -6 37 7 99
61 170 148 305 217 500 254 17 3 102 5 190 4 88 0 175 -1 194 -1 34 0 33 -2
-96 -127 -149 -144 -213 -215 -410 -461 -78 -96 -157 -193 -176 -215 l-34 -39
-52 52 c-90 91 -195 128 -335 119 -101 -6 -179 -35 -259 -95 -112 -86 -200
-218 -250 -377 -32 -101 -38 -137 -42 -255 -8 -212 55 -361 200 -470 35 -26
138 -68 199 -80 165 -33 402 11 559 104 l40 25 29 -40 c71 -98 194 -127 360
-84 104 26 232 110 314 205 12 14 32 36 44 50 111 127 191 358 160 457 -29 89
-84 116 -237 116 l-113 0 0 49 c0 54 -20 102 -49 117 -27 15 -31 5 -31 -65 0
-34 -4 -73 -9 -86 -9 -23 -12 -23 -84 -18 -91 8 -107 18 -101 66 10 83 85 175
195 239 107 63 193 83 206 50 3 -9 -7 -65 -23 -125 -15 -60 -26 -112 -22 -115
6 -6 124 40 214 85 47 22 51 27 43 48 -8 22 -10 22 -46 7 -22 -10 -40 -12 -46
-6 -8 8 29 147 60 227 6 15 1 16 -44 10 -79 -10 -222 -55 -298 -93 -95 -47
-151 -90 -232 -177 -77 -82 -119 -153 -132 -219 -17 -92 35 -126 192 -128 51
-1 77 -5 77 -12 0 -19 -59 -127 -109 -198 -63 -91 -117 -153 -167 -194 l-43
-35 -10 52 c-6 29 -13 80 -16 113 -3 33 -8 71 -10 85 -2 14 -6 57 -10 95 -3
39 -8 81 -10 95 -2 14 -7 42 -10 63 -13 96 -17 116 -32 170 l-16 58 34 37 c19
20 41 43 49 52 26 26 90 107 228 290 158 208 314 397 409 497 l68 72 120 5
c145 7 180 11 314 37 116 23 151 34 151 48 0 16 -24 18 -115 6 -49 -7 -158
-13 -241 -13 -143 -1 -152 0 -157 18 -6 25 -39 26 -60 2 -14 -15 -26 -17 -69
-12 -63 8 -369 5 -418 -5 -137 -26 -241 -68 -366 -150 l-87 -56 30 38 c73 92
101 197 58 213 -11 4 -29 4 -41 0z m-324 -867 c-14 -10 -44 -31 -67 -47 -78
-52 -123 -131 -123 -215 0 -79 29 -129 89 -152 76 -30 233 1 342 67 31 19 59
34 62 34 3 0 12 -39 21 -87 15 -87 18 -107 31 -233 4 -36 8 -76 10 -90 2 -14
7 -57 10 -97 4 -39 12 -100 20 -135 11 -56 11 -64 -4 -75 -31 -23 -174 -75
-245 -88 -404 -77 -693 256 -604 696 55 272 209 426 438 438 l44 2 -24 -18z
m150 -40 c39 -28 110 -124 110 -149 0 -20 -129 -122 -195 -154 -83 -41 -147
-48 -174 -21 -41 41 -22 141 41 212 20 23 167 139 176 139 2 0 21 -12 42 -27z
m984 -476 c73 -22 96 -87 70 -198 -40 -173 -169 -331 -331 -407 -48 -22 -72
-27 -140 -27 -99 0 -125 15 -164 95 l-27 53 47 37 c114 91 252 258 315 383
l39 77 76 -1 c42 0 94 -6 115 -12z"/>
</g>
</svg>
